<svg xmlns="http://www.w3.org/2000/svg" viewBox="0 0 512 512" style="enable-background:new 0 0 512 512" xml:space="preserve"><path style="fill:#f2f2f2" d="M471.688 245.941H352.923v-96.907h95.602z"/><path style="fill:#fff" d="M471.688 245.941h-93.14l64.93-96.907h5.047z"/><path style="fill:#35d8b9" d="M502.86 275.602v109.549h-43.888v-.232c0-31.307-25.382-56.688-56.688-56.688s-56.676 25.382-56.676 56.688v.232H153.599v-.232c0-31.307-25.37-56.688-56.676-56.688s-56.688 25.382-56.688 56.688v.232H9.147V91.517c0-11.667 9.448-21.115 21.115-21.115h372.754c15.653 0 29.271 10.74 32.916 25.979l12.593 52.653h-95.602v96.907h118.765l17.555 8.241a23.652 23.652 0 0 1 13.617 21.42z"/><path style="fill:#2bbfa3" d="M9.147 340.667h495.006v44.485H9.147zM489.243 250.452H9.147v22.242h495.01zM424.24 72.462H9.147v22.243h430.008z"/><path style="fill:#e6e6e6" d="M402.284 358.708c14.459 0 26.211 11.752 26.211 26.211 0 14.446-11.752 26.199-26.211 26.199-14.446 0-26.199-11.752-26.199-26.199.001-14.458 11.753-26.211 26.199-26.211zM96.923 358.708c14.446 0 26.199 11.752 26.199 26.211 0 14.446-11.752 26.199-26.199 26.199-14.459 0-26.211-11.752-26.211-26.199 0-14.458 11.752-26.211 26.211-26.211z"/><path style="fill:#666" d="M458.973 384.919v.232c-.122 31.197-25.455 56.445-56.688 56.445s-56.554-25.248-56.676-56.445v-.232c0-31.307 25.37-56.688 56.676-56.688s56.688 25.382 56.688 56.688zm-30.478 0c0-14.459-11.752-26.211-26.211-26.211-14.446 0-26.199 11.752-26.199 26.211 0 14.446 11.752 26.199 26.199 26.199 14.459 0 26.211-11.752 26.211-26.199zM153.599 384.919v.232c-.122 31.197-25.443 56.445-56.676 56.445s-56.566-25.248-56.688-56.445v-.232c0-31.307 25.382-56.688 56.688-56.688s56.676 25.382 56.676 56.688zm-30.478 0c0-14.459-11.752-26.211-26.199-26.211-14.459 0-26.211 11.752-26.211 26.211 0 14.446 11.752 26.199 26.211 26.199 14.447 0 26.199-11.752 26.199-26.199z"/><path style="fill:#333" d="m493.133 245.905-13.58-6.372L444.82 94.252c-4.647-19.428-21.839-32.995-41.808-32.995H30.257C13.574 61.256 0 74.83 0 91.513v293.635a9.142 9.142 0 0 0 9.143 9.143h22.625c4.567 31.871 32.037 56.452 65.15 56.452s60.583-24.581 65.15-56.452h175.07c4.567 31.871 32.037 56.452 65.15 56.452s60.583-24.581 65.15-56.452h35.417a9.142 9.142 0 0 0 9.143-9.143V275.601c.002-12.661-7.404-24.316-18.865-29.696zm-33.035-9.11h-98.036v-78.62h79.239l18.797 78.62zM96.919 432.457c-26.216 0-47.543-21.327-47.543-47.543 0-26.216 21.327-47.543 47.543-47.543s47.543 21.328 47.543 47.543-21.327 47.543-47.543 47.543zm305.37 0c-26.216 0-47.543-21.327-47.543-47.543 0-26.216 21.327-47.543 47.543-47.543s47.543 21.328 47.543 47.543-21.327 47.543-47.543 47.543zm91.424-56.452h-26.214c-4.364-32.097-31.934-56.919-65.21-56.919s-60.846 24.822-65.21 56.919h-174.95c-4.364-32.097-31.934-56.919-65.21-56.919s-60.846 24.822-65.21 56.919H18.287V91.513c0-6.601 5.37-11.97 11.97-11.97h372.755a24.627 24.627 0 0 1 24.024 18.962l9.894 41.384h-84.011a9.142 9.142 0 0 0-9.143 9.143v96.907a9.142 9.142 0 0 0 9.143 9.143h116.726l15.718 7.377c5.073 2.381 8.351 7.539 8.351 13.142v100.404z"/><path style="fill:#333" d="M96.919 349.564c-19.492 0-35.352 15.858-35.352 35.352 0 19.493 15.859 35.352 35.352 35.352s35.35-15.858 35.35-35.352c0-19.494-15.858-35.352-35.35-35.352zm0 52.415c-9.41 0-17.065-7.655-17.065-17.065 0-9.409 7.655-17.065 17.065-17.065 9.409 0 17.064 7.655 17.064 17.065 0 9.411-7.655 17.065-17.064 17.065zM402.289 349.564c-19.492 0-35.352 15.858-35.352 35.352 0 19.493 15.859 35.352 35.352 35.352s35.35-15.858 35.35-35.352c0-19.494-15.856-35.352-35.35-35.352zm0 52.415c-9.41 0-17.065-7.655-17.065-17.065 0-9.409 7.655-17.065 17.065-17.065 9.409 0 17.064 7.655 17.064 17.065 0 9.411-7.655 17.065-17.064 17.065z"/><path style="fill:#fff" d="m249.116 210.625-1.044 1.044c-17.183-11.848-40.116-11.848-57.298 0l-51.477-51.478.979-.979a9.142 9.142 0 0 0 0-12.93 9.143 9.143 0 0 0-12.931 0l-.978.978-31.821-31.82a9.142 9.142 0 0 0-12.931 0 9.142 9.142 0 0 0 0 12.93l31.82 31.821-.98.98a9.142 9.142 0 0 0 6.466 15.608c2.339 0 4.68-.892 6.466-2.678l.979-.979 51.469 51.469c-5.79 8.364-8.918 18.268-8.918 28.658 0 10.389 3.127 20.293 8.917 28.658l-1.036 1.036a9.142 9.142 0 0 0 6.466 15.608c2.339 0 4.68-.892 6.466-2.678l72.317-72.317a9.142 9.142 0 0 0 0-12.93 9.142 9.142 0 0 0-12.931-.001zm-61.911 42.623c0-8.606 3.351-16.697 9.436-22.783 10.316-10.315 25.943-12.152 38.159-5.525l-43.694 43.694c-2.546-4.667-3.901-9.921-3.901-15.386z"/></svg>